# xmcd CD database file
#
# Track frame offsets:
#	150
#	26292
#	50482
#	69485
#	89180
#	114252
#	135772
#	157622
#	186492
#
# Disc length: 2846 seconds
#
# Revision: 0
# Processed by: cddbd v1.4PL0 Copyright (c) Steve Scherf et al.
# Submitted via: CDex 1.50beta8
#
DISCID=6b0b1c09
DTITLE=Uffe Steen - Hymn To Spring
DYEAR=1995
DGENRE=Jazz
TTITLE0=Hymn To Spring
TTITLE1=Swoobie Woobie
TTITLE2=Alberto's Rhumba
TTITLE3=Twilights Hour
TTITLE4=Elixir
TTITLE5=Passacaglia
TTITLE6=Under the Misteltoe
TTITLE7=Dedicated to Bob
TTITLE8=Day of Peace
EXTD=YEAR: 1995
EXTT0=
EXTT1=
EXTT2=
EXTT3=
EXTT4=
EXTT5=
EXTT6=
EXTT7=
EXTT8=
PLAYORDER=
